<?xml version="1.0" encoding="utf-8"?>
<!-- Generator: Adobe Illustrator 21.1.0, SVG Export Plug-In . SVG Version: 6.00 Build 0)  -->
<svg version="1.1" id="Capa_1" xmlns="http://www.w3.org/2000/svg" xmlns:xlink="http://www.w3.org/1999/xlink" x="0px" y="0px"
	 viewBox="0 0 319 398" enable-background="new 0 0 319 398" xml:space="preserve">
<g>
	<path fill="#4D61A5" d="M310.781,8.12c-2.242-1.378-4.981-1.493-7.328-0.302l0.001-0.001L34.176,144.093
		c-15.829,8.009-25.839,24.004-26.123,41.744L5.572,340.903c-0.206,12.866,4.651,25.005,13.679,34.177
		c9.026,9.172,21.086,14.224,33.956,14.224h213.516c26.269,0,47.64-21.373,47.64-47.64V14.523
		C314.362,11.891,313.024,9.498,310.781,8.12z M281.335,63.24v262.87c0,19.623-15.966,35.588-35.59,35.588H74.178
		c-9.613,0-18.622-3.773-25.365-10.627c-6.743-6.851-10.371-15.921-10.217-25.533l1.994-124.604
		c0.208-13.248,7.685-25.195,19.511-31.18L276.477,60.253c0.48-0.243,0.997-0.363,1.512-0.363c0.608,0,1.213,0.166,1.754,0.499
		C280.739,61.003,281.335,62.068,281.335,63.24z"/>
	<path fill="#DD9937" d="M310.784,8.122c-2.236-1.375-4.979-1.49-7.329-0.303L214.72,52.724l1.573,1.458
		c9.249,8.574,21.294,13.297,33.916,13.297c7.022,0,13.812-1.43,20.233-4.274l6.036-2.953c1.047-0.528,2.265-0.475,3.262,0.136
		c0.997,0.614,1.593,1.681,1.593,2.854l0.224,258.621c0,17.752,9.555,34.314,24.938,43.224l1.324,0.767l0.733-1.341
		c3.799-6.944,5.807-14.845,5.807-22.845V14.523C314.361,11.891,313.024,9.499,310.784,8.122z"/>
</g>
</svg>
